<?xml version="1.0" encoding="utf-8"?>
<!-- Generated by IcoMoon.io -->
<!DOCTYPE svg PUBLIC "-//W3C//DTD SVG 1.1//EN" "http://www.w3.org/Graphics/SVG/1.1/DTD/svg11.dtd">
<svg version="1.1" xmlns="http://www.w3.org/2000/svg" xmlns:xlink="http://www.w3.org/1999/xlink" width="30" height="30" viewBox="0 0 30 30">
<g>
</g>
	<path d="M14.531 2.813c-6.99 0-12.656 5.666-12.656 12.656s5.666 12.656 12.656 12.656 12.656-5.666 12.656-12.656-5.666-12.656-12.656-12.656zM14.531 25.313c-5.437 0-9.844-4.407-9.844-9.844s4.407-9.844 9.844-9.844 9.844 4.407 9.844 9.844-4.407 9.844-9.844 9.844zM14.531 9.375c-0.776 0-1.406 0.629-1.406 1.406v4.746c0 0.776 0.63 1.406 1.406 1.406s1.406-0.63 1.406-1.406v-4.746c0-0.777-0.63-1.406-1.406-1.406zM14.531 18.75c-0.776 0-1.406 0.63-1.406 1.406s0.63 1.406 1.406 1.406 1.406-0.63 1.406-1.406-0.63-1.406-1.406-1.406z" fill="#ffffff" />
</svg>
