<?xml version="1.0" encoding="utf-8"?>
<!-- Generated by IcoMoon.io -->
<!DOCTYPE svg PUBLIC "-//W3C//DTD SVG 1.1//EN" "http://www.w3.org/Graphics/SVG/1.1/DTD/svg11.dtd">
<svg version="1.1" xmlns="http://www.w3.org/2000/svg" xmlns:xlink="http://www.w3.org/1999/xlink" width="30" height="30" viewBox="0 0 30 30">
<g>
</g>
	<path d="M14.531 3.281c-6.731 0-12.188 5.456-12.188 12.188s5.456 12.188 12.188 12.188 12.188-5.456 12.188-12.188-5.456-12.188-12.188-12.188zM14.531 22.383c-0.777 0-1.406-0.63-1.406-1.406s0.629-1.406 1.406-1.406c0.776 0 1.406 0.63 1.406 1.406s-0.63 1.406-1.406 1.406zM15.938 16.289c0 0.776-0.63 1.406-1.406 1.406-0.777 0-1.406-0.63-1.406-1.406v-6.563c0-0.777 0.629-1.406 1.406-1.406 0.776 0 1.406 0.629 1.406 1.406v6.563z" fill="#ffffff" />
</svg>
