<?xml version="1.0" encoding="utf-8"?>
<!-- Generated by IcoMoon.io -->
<!DOCTYPE svg PUBLIC "-//W3C//DTD SVG 1.1//EN" "http://www.w3.org/Graphics/SVG/1.1/DTD/svg11.dtd">
<svg version="1.1" xmlns="http://www.w3.org/2000/svg" xmlns:xlink="http://www.w3.org/1999/xlink" width="32" height="32" viewBox="0 0 32 32">
<g id="icomoon-ignore">
	<line stroke-width="1" x1="" y1="" x2="" y2="" stroke="#449FDB" opacity=""></line>
</g>
	<path d="M30 0h-16c-1.105 0-2 0.894-2 2v16c0 1.105 0.895 2 2 2h16c1.105 0 2-0.895 2-2v-16c0-1.105-0.895-2-2-2zM28 16h-12v-12h12v12zM16 28h-12v-12h4v-4h-6c-1.105 0-2 0.895-2 2v16c0 1.105 0.894 2 2 2h16c1.105 0 2-0.895 2-2v-6h-4v4z" fill="#ffffff"></path>
</svg>
