<?xml version="1.0" encoding="utf-8"?>
<!-- Generated by IcoMoon.io -->
<!DOCTYPE svg PUBLIC "-//W3C//DTD SVG 1.1//EN" "http://www.w3.org/Graphics/SVG/1.1/DTD/svg11.dtd">
<svg version="1.1" xmlns="http://www.w3.org/2000/svg" xmlns:xlink="http://www.w3.org/1999/xlink" width="30" height="30" viewBox="0 0 30 30">
<g>
</g>
	<path d="M20.911 5.339c-0.486-0.489-1.276-0.491-1.768-0.005-0.13 0.13-0.22 0.284-0.281 0.444-1.040 2.17-2.185 3.394-3.63 4.116-1.621 0.8-3.482 1.356-6.482 1.356-0.163 0-0.325 0.031-0.478 0.095-0.306 0.127-0.549 0.371-0.676 0.676-0.126 0.305-0.126 0.65 0 0.955 0.064 0.154 0.155 0.293 0.271 0.407l4.054 4.054-5.671 7.562 7.562-5.671 4.052 4.052c0.115 0.118 0.254 0.208 0.407 0.271 0.152 0.064 0.315 0.097 0.478 0.097s0.325-0.034 0.478-0.097c0.306-0.128 0.55-0.369 0.676-0.676 0.064-0.151 0.096-0.315 0.096-0.476 0-3 0.555-4.861 1.354-6.457 0.721-1.445 1.945-2.59 4.116-3.63 0.161-0.061 0.314-0.151 0.443-0.281 0.486-0.491 0.484-1.281-0.005-1.768l-4.996-5.025z" fill="#ffffff" />
</svg>
