<?xml version="1.0" encoding="utf-8"?>
<!-- Generated by IcoMoon.io -->
<!DOCTYPE svg PUBLIC "-//W3C//DTD SVG 1.1//EN" "http://www.w3.org/Graphics/SVG/1.1/DTD/svg11.dtd">
<svg version="1.1" xmlns="http://www.w3.org/2000/svg" xmlns:xlink="http://www.w3.org/1999/xlink" width="30" height="30" viewBox="0 0 30 30">
<g>
</g>
	<path d="M26.795 9.482l-4.997-5.025c-0.94-0.945-2.579-0.955-3.538-0.008-0.245 0.245-0.437 0.545-0.523 0.786-0.816 1.702-1.693 2.769-2.818 3.409l-0.271 0.131c-1.21 0.606-2.856 1.224-5.899 1.224-0.332 0-0.651 0.065-0.958 0.19-0.605 0.253-1.099 0.744-1.352 1.355-0.249 0.605-0.249 1.301 0 1.906 0.13 0.311 0.313 0.589 0.544 0.814l4.044 4.044-4.778 6.691 6.69-4.777 4.034 4.034c0.232 0.236 0.508 0.424 0.82 0.551 0.309 0.129 0.629 0.193 0.958 0.193s0.649-0.065 0.956-0.193c0.623-0.256 1.104-0.74 1.35-1.348 0.129-0.302 0.194-0.634 0.194-0.96 0-3.045 0.617-4.69 1.223-5.901 0.62-1.24 1.711-2.185 3.442-3.017 0.339-0.13 0.637-0.32 0.889-0.571 0.965-0.977 0.96-2.564-0.010-3.527zM20.235 15.484c-1.024 2.054-1.485 4.213-1.494 7.005l-9.991-9.989c2.674 0 4.768-0.419 6.745-1.355l0.294-0.131c1.749-0.874 3.085-2.366 4.235-4.793l4.905 5.064c-2.329 1.116-3.82 2.45-4.694 4.199z" fill="#ffffff" />
</svg>
