<svg xmlns="http://www.w3.org/2000/svg" width="24" height="24" viewBox="0 0 24 24"><path d="M 15.9994,19.9981L 19.9994,19.9981L 19.9994,15.9981L 15.9994,15.9981M 15.9994,13.9981L 19.9994,13.9981L 19.9994,9.99807L 15.9994,9.99807M 9.99938,7.99807L 13.9994,7.99807L 13.9994,3.99807L 9.99938,3.99807M 15.9994,7.99807L 19.9994,7.99807L 19.9994,3.99807L 15.9994,3.99807M 9.99938,13.9981L 13.9994,13.9981L 13.9994,9.99807L 9.99938,9.99807M 3.99938,13.9981L 7.99938,13.9981L 7.99938,9.99807L 3.99938,9.99807M 3.99938,19.9981L 7.99938,19.9981L 7.99938,15.9981L 3.99938,15.9981M 9.99938,19.9981L 13.9994,19.9981L 13.9994,15.9981L 9.99938,15.9981M 3.99938,7.99807L 7.99938,7.99807L 7.99938,3.99807L 3.99938,3.99807L 3.99938,7.99807 Z "/></svg>
