<svg xmlns="http://www.w3.org/2000/svg" width="24" height="24" viewBox="0 0 24 24"><path d="M 11.9994,20.1368C 7.58842,20.1368 3.99943,16.5479 3.99943,12.1368C 3.99943,7.72583 7.58842,4.13684 11.9994,4.13684C 16.4104,4.13684 19.9994,7.72583 19.9994,12.1368C 19.9994,16.5479 16.4104,20.1368 11.9994,20.1368 Z M 11.9994,2.13684C 6.47642,2.13684 1.99943,6.61383 1.99943,12.1368C 1.99943,17.6599 6.47642,22.1368 11.9994,22.1368C 17.5224,22.1368 21.9994,17.6599 21.9994,12.1368C 21.9994,6.61383 17.5224,2.13684 11.9994,2.13684 Z M 9.99943,16.6368L 15.9994,12.1368L 9.99943,7.63684L 9.99943,16.6368 Z "/></svg>
